<svg width="33" height="31" viewBox="0 0 33 31" fill="none" xmlns="http://www.w3.org/2000/svg">
<rect width="33" height="31" fill="#E5E5E5"/>
<g id="Homepage" clip-path="url(#clip0_101_2)">
<rect width="1920" height="10794" transform="translate(-572 -5588)" fill="white"/>
<g id="slide">
<g id="Asterisk 1" clip-path="url(#clip1_101_2)">
<g id="g3065">
<g id="text3035">
<path id="path3063" d="M0 14.6211L2.24609 7.6875C7.42186 9.51048 11.1816 11.0893 13.5254 12.4238C12.9069 6.53197 12.5814 2.47924 12.5488 0.265625H19.6289C19.5312 3.48835 19.1569 7.52481 18.5059 12.375C21.8587 10.6824 25.6998 9.11986 30.0293 7.6875L32.2754 14.6211C28.1412 15.9883 24.0885 16.8998 20.1172 17.3555C22.1028 19.0808 24.9023 22.157 28.5156 26.584L22.6562 30.7344C20.7682 28.1628 18.5384 24.6635 15.9668 20.2363C13.5579 24.8262 11.442 28.3256 9.61914 30.7344L3.85742 26.584C7.63345 21.9291 10.3353 18.8529 11.9629 17.3555C7.76366 16.5417 3.77603 15.6303 0 14.6211Z" fill="black"/>
</g>
</g>
</g>
</g>
</g>
<defs>
<clipPath id="clip0_101_2">
<rect width="1920" height="10794" fill="white" transform="translate(-572 -5588)"/>
</clipPath>
<clipPath id="clip1_101_2">
<rect width="32.2754" height="30.4688" fill="white" transform="translate(0 0.265625)"/>
</clipPath>
</defs>
</svg>
